# xmcd
#
# Track frame offsets: 
#        150
#        14795
#        28954
#        45699
#        57901
#        74453
#        89721
#        104273
#        119859
#        130440
#        148287
#
# Disc length: 2150 seconds
#
# Revision: 0
# Processed by: cddbd v1.5.2PL0 Copyright (c) Steve Scherf et al.
# Submitted via: ExactAudioCopyFreeDBPlugin 1.0
#
DISCID=b808640b
DTITLE=Cannabis Corpse - Nug So Vile
DYEAR=2019
DGENRE=Death Metal
TTITLE0=Conquerors of Chronageddon
TTITLE1=Nug So Vile
TTITLE2=Blunt Force Domain
TTITLE3=Cylinders of Madness
TTITLE4=Blasphemy Made Hash
TTITLE5=Cheeba Jigsore Quandary
TTITLE6=Edibles Autopsy
TTITLE7=Dawn of Weed Possession
TTITLE8=The Cone is Red (Long Live the Cone)
TTITLE9=The Ultimate Indica-ntation
TTITLE10=From Enslavement to Hydrobliteration
EXTD=
EXTT0=
EXTT1=
EXTT2=
EXTT3=
EXTT4=
EXTT5=
EXTT6=
EXTT7=
EXTT8=
EXTT9=
EXTT10=
PLAYORDER=
